<?xml version="1.0" standalone="no"?>
<!DOCTYPE svg PUBLIC "-//W3C//DTD SVG 20010904//EN"
 "http://www.w3.org/TR/2001/REC-SVG-20010904/DTD/svg10.dtd">
<svg version="1.0" xmlns="http://www.w3.org/2000/svg"
 width="500.000000pt" height="500.000000pt" viewBox="0 0 500.000000 500.000000"
 preserveAspectRatio="xMidYMid meet">
<metadata>
Created by potrace 1.14, written by Peter Selinger 2001-2017
</metadata>
<g transform="translate(0.000000,500.000000) scale(0.100000,-0.100000)"
fill="#000000" stroke="none">
<path d="M0 3418 l0 -1581 22 19 c12 10 42 37 66 59 70 64 118 89 344 180
l213 86 38 62 c22 35 52 78 67 97 l29 35 -6 -80 c-3 -44 -10 -88 -15 -98 -7
-13 2 -47 31 -125 21 -59 43 -118 47 -132 7 -25 94 -170 94 -157 0 5 -18 43
-40 85 -67 130 -96 300 -71 416 l6 30 47 -52 c25 -29 48 -52 51 -52 2 0 22
-18 44 -39 35 -35 45 -40 108 -46 38 -4 113 -5 167 -2 82 5 96 4 91 -8 -3 -10
2 -15 17 -15 15 0 56 34 125 105 57 58 107 105 110 105 14 0 -6 -146 -31 -220
-13 -42 -42 -112 -64 -155 -22 -44 -40 -83 -40 -88 0 -4 14 8 31 28 46 52 139
333 139 418 0 74 7 70 65 -40 40 -76 41 -77 100 -97 91 -30 702 -338 771 -388
80 -60 123 -122 170 -248 21 -57 40 -96 42 -87 4 20 24 31 169 93 59 25 157
71 217 102 74 38 111 53 114 44 6 -18 22 -15 22 5 0 9 7 24 16 34 19 22 4 52
-35 66 l-26 9 23 13 c18 9 31 10 54 2 l31 -11 -26 24 c-23 22 -25 27 -16 67 5
24 17 61 26 82 l16 38 26 -28 c28 -30 84 -73 96 -73 4 0 -9 17 -29 37 -20 21
-36 45 -36 54 0 9 -13 40 -30 70 -36 66 -38 80 -5 49 29 -27 34 -16 7 14 -10
12 -29 39 -42 61 -18 30 -20 37 -7 26 16 -12 15 -7 -4 40 -29 70 -54 173 -68
278 -6 46 -20 102 -31 124 -12 22 -20 47 -19 56 2 27 -1 65 -5 60 -2 -2 -7
-40 -11 -84 -4 -44 -9 -82 -11 -84 -17 -19 12 263 36 349 9 34 10 34 5 -8 -17
-145 -11 -146 15 -2 16 91 32 181 34 201 6 55 83 195 137 249 56 56 125 97
229 136 67 25 88 28 195 28 106 0 128 -3 185 -26 121 -48 223 -102 270 -145
53 -48 109 -147 135 -238 10 -33 28 -92 41 -131 13 -39 31 -126 40 -195 28
-214 6 -403 -61 -529 -19 -36 -61 -120 -94 -188 -33 -68 -73 -140 -89 -160
-39 -50 -50 -74 -18 -40 29 33 46 36 46 9 0 -11 5 -23 10 -26 6 -4 8 -15 5
-25 -4 -13 5 -27 32 -49 l38 -31 -30 0 c-39 0 -64 -15 -49 -30 8 -8 19 -8 39
0 15 6 30 8 33 5 11 -11 -15 -25 -66 -37 -50 -12 -73 -38 -33 -38 14 0 17 -6
13 -25 -6 -36 -78 -77 -124 -71 -19 2 -41 0 -48 -4 -12 -7 5 -12 131 -36 37
-7 65 7 94 46 15 20 25 28 25 18 0 -8 -7 -21 -15 -28 -14 -12 -21 -40 -10 -40
3 0 16 9 28 21 33 32 58 38 102 24 54 -16 424 -210 452 -237 25 -23 31 -44 11
-32 -7 4 -1 -6 13 -22 14 -16 33 -40 42 -54 16 -23 17 104 17 1868 l0 1892
-2500 0 -2500 0 0 -1582z m1269 240 c10 -10 15 -10 18 -1 2 7 11 9 19 6 13 -5
13 -7 2 -14 -9 -6 -7 -9 10 -9 12 0 22 6 22 13 0 7 5 5 11 -5 5 -10 16 -15 24
-12 8 4 15 1 15 -6 0 -6 5 -8 10 -5 6 3 16 3 23 -2 6 -4 18 -8 26 -10 17 -2
31 -16 36 -34 11 -47 18 -57 37 -54 16 4 18 2 8 -10 -15 -18 1 -20 18 -3 8 8
14 5 21 -14 5 -14 17 -28 26 -32 10 -3 15 -12 11 -21 -3 -8 0 -15 5 -15 7 0 9
-11 6 -25 -3 -20 -1 -25 12 -23 10 2 21 -7 29 -25 17 -40 15 -49 -7 -42 -20 6
-21 -3 -6 -38 5 -12 2 -24 -8 -34 -14 -14 -12 -21 14 -77 16 -33 29 -68 29
-76 0 -13 2 -13 9 -1 7 10 9 8 9 -10 0 -13 5 -44 11 -69 22 -96 6 -212 -45
-329 -13 -29 -24 -62 -24 -73 0 -22 -51 -130 -58 -123 -3 2 -14 -13 -24 -35
-11 -22 -24 -40 -29 -40 -5 0 -16 -17 -24 -37 -9 -21 -19 -40 -23 -43 -4 -3
-20 -24 -35 -46 -30 -45 -86 -81 -108 -70 -41 20 -58 33 -52 39 3 4 -2 7 -11
7 -12 0 -16 -5 -12 -15 4 -11 -2 -15 -24 -15 -20 0 -30 5 -30 15 0 8 -6 15
-12 15 -24 0 -40 -17 -41 -44 -2 -25 -5 -27 -32 -21 -16 4 -38 7 -48 8 -24 3
-97 66 -98 86 -1 23 -83 142 -136 199 -7 7 -13 22 -13 33 0 10 -6 18 -12 16
-14 -2 -44 81 -80 218 -28 105 -32 293 -7 321 24 27 49 124 44 167 -3 20 -1
38 4 41 5 4 5 21 -1 40 -9 28 -8 42 6 69 9 19 16 41 16 49 1 18 25 48 39 48 6
0 11 4 11 9 0 5 13 19 30 31 27 19 29 19 23 3 -3 -10 -3 -15 1 -11 4 3 8 12 9
20 6 40 68 79 134 83 17 1 39 10 49 20 10 10 20 13 21 8 4 -10 98 -1 110 10
10 11 28 8 42 -5z m-617 -596 c7 -18 7 -39 1 -64 -6 -21 -7 -39 -3 -40 4 -2
10 -19 13 -38 6 -32 5 -33 -8 -16 -8 10 -16 24 -18 30 -2 6 -8 8 -12 4 -11
-10 4 -66 23 -85 13 -12 41 -73 42 -90 0 -1 -9 -7 -20 -13 -30 -16 -60 4 -59
38 1 17 3 20 6 10 5 -19 38 -24 48 -8 3 6 -1 10 -9 10 -9 0 -16 8 -16 18 0 9
-10 36 -22 58 -20 39 -21 48 -12 124 5 45 6 84 2 86 -5 3 -8 10 -8 15 0 19 41
-12 52 -39z m1178 -52 c8 -69 7 -89 -6 -117 -23 -46 -34 -50 -27 -8 6 39 -9
48 -27 14 -16 -28 -23 -17 -15 21 5 24 11 30 25 25 15 -5 17 -2 13 17 -4 13
-12 27 -20 31 -21 13 -15 56 13 84 14 14 27 23 30 20 2 -2 9 -42 14 -87z
m-1261 -21 c7 -55 11 -102 9 -105 -6 -5 -38 154 -38 185 0 12 4 21 8 21 4 0
14 -45 21 -101z m1293 -63 c-15 -49 -34 -92 -41 -94 -10 -3 -11 0 -1 19 22 39
38 115 35 161 -2 39 -2 40 4 8 l6 -35 10 45 c8 40 9 42 12 15 2 -16 -9 -70
-25 -119z m-1285 102 c-3 -8 -6 -5 -6 6 -1 11 2 17 5 13 3 -3 4 -12 1 -19z
m2660 -30 c-3 -8 -6 -5 -6 6 -1 11 2 17 5 13 3 -3 4 -12 1 -19z m-1457 -168
c0 -5 -4 -10 -10 -10 -5 0 -10 5 -10 10 0 6 5 10 10 10 6 0 10 -4 10 -10z
m-20 -44 c6 -8 18 -12 27 -9 11 4 14 1 11 -13 -4 -25 -39 -30 -55 -8 -25 34
-10 61 17 30z m1437 -248 c-2 -13 -4 -5 -4 17 -1 22 1 32 4 23 2 -10 2 -28 0
-40z m61 -193 c-3 -3 -9 2 -12 12 -6 14 -5 15 5 6 7 -7 10 -15 7 -18z m52 -94
c0 -18 -4 -14 -24 29 l-17 35 20 -25 c11 -14 21 -31 21 -39z m-2033 -64 c-4
-10 3 -12 27 -9 41 6 28 -7 -18 -18 -39 -9 -59 12 -28 29 23 14 25 13 19 -2z
m-67 -17 c0 -5 -2 -10 -4 -10 -3 0 -8 5 -11 10 -3 6 -1 10 4 10 6 0 11 -4 11
-10z m3080 -600 c0 -5 -8 -10 -17 -10 -15 0 -16 2 -3 10 19 12 20 12 20 0z"/>
<path d="M908 3198 c9 -9 15 -9 24 0 9 9 7 12 -12 12 -19 0 -21 -3 -12 -12z"/>
<path d="M823 3083 c-23 -11 -33 -24 -33 -40 0 -13 4 -23 9 -23 5 0 16 -3 25
-6 9 -3 16 -1 16 5 0 7 9 21 20 33 l20 21 25 -27 c29 -31 55 -31 71 2 17 35
22 37 44 17 26 -23 25 -33 -2 -38 -20 -4 -19 -4 5 -6 32 -1 35 16 9 49 -16 20
-30 24 -98 27 -60 2 -87 -1 -111 -14z"/>
<path d="M1408 3090 c-10 -6 -18 -16 -18 -22 0 -9 3 -9 12 0 16 16 38 15 38
-1 0 -8 9 -22 19 -31 23 -21 56 -9 67 26 7 22 7 22 30 -7 29 -37 79 -44 70
-10 -3 11 -6 23 -6 26 0 24 -178 39 -212 19z"/>
<path d="M1374 3039 c-9 -15 1 -21 26 -17 21 3 21 3 1 15 -14 9 -22 9 -27 2z"/>
<path d="M1118 2733 c6 -2 18 -2 25 0 6 3 1 5 -13 5 -14 0 -19 -2 -12 -5z"/>
<path d="M1082 2531 c-29 -16 -56 -32 -59 -35 -3 -3 9 -18 27 -33 52 -44 107
-52 65 -9 -8 8 -15 18 -15 23 0 5 52 8 116 8 l116 0 -5 -27 c-2 -17 1 -28 8
-28 19 0 65 40 65 56 0 8 7 14 16 14 22 0 12 24 -12 28 -10 2 -36 10 -56 19
-23 10 -49 13 -70 9 -37 -7 -37 -7 -98 -1 -36 4 -55 0 -98 -24z"/>
<path d="M3724 3241 c-108 -80 -179 -180 -289 -406 -51 -104 -97 -266 -94
-329 1 -12 7 6 14 39 26 115 55 189 87 222 18 18 39 33 47 33 11 0 10 -4 -5
-16 -18 -15 -18 -15 2 -5 12 6 25 7 29 3 5 -4 4 0 0 8 -7 12 -6 13 7 3 8 -7
17 -10 20 -7 5 4 50 -2 162 -22 46 -9 21 12 -41 33 -94 33 -144 42 -171 32
-14 -5 -27 -7 -30 -4 -3 3 0 5 6 5 7 0 12 9 12 20 0 48 129 252 191 302 31 25
47 30 97 31 33 1 59 4 56 8 -2 3 9 4 24 1 24 -5 24 -6 7 -13 -11 -4 -15 -8 -8
-8 24 -2 64 19 58 30 -5 7 -2 7 11 0 11 -5 32 -12 47 -16 32 -7 104 -77 153
-150 19 -27 52 -75 73 -105 45 -62 50 -81 21 -75 -11 2 -18 0 -15 -6 4 -5 -2
-9 -12 -9 -11 0 -48 -10 -84 -21 -107 -36 -125 -72 -23 -45 90 23 182 23 202
0 5 -5 22 -47 38 -94 24 -72 29 -100 28 -185 -1 -117 -28 -244 -74 -338 -30
-61 -30 -62 -4 -32 23 27 24 27 14 5 -7 -14 -28 -47 -47 -75 -31 -44 -25 -40
46 33 68 69 90 101 131 185 54 113 75 195 61 242 l-8 30 -10 -25 c-6 -14 -21
-59 -33 -100 -25 -84 -79 -202 -110 -240 l-21 -25 19 40 c31 64 56 254 48 357
-12 144 -54 246 -178 433 -168 253 -231 315 -323 315 -47 0 -58 -5 -131 -59z
m-194 -415 c0 -2 -7 -7 -16 -10 -8 -3 -12 -2 -9 4 6 10 25 14 25 6z"/>
<path d="M4431 2884 c0 -11 3 -14 6 -6 3 7 2 16 -1 19 -3 4 -6 -2 -5 -13z"/>
<path d="M3515 2705 c-22 -8 -41 -15 -42 -15 -2 0 -3 -9 -3 -20 0 -26 28 -23
52 5 17 20 17 20 18 -5 1 -41 24 -62 62 -58 25 2 37 10 49 34 13 27 18 30 32
19 22 -16 22 -31 0 -44 -16 -9 -14 -10 8 -11 21 0 26 5 25 22 -1 16 -17 32
-56 55 -60 36 -85 39 -145 18z"/>
<path d="M4079 2700 c-48 -25 -97 -100 -55 -84 8 3 13 11 10 18 -3 7 2 18 10
25 12 10 17 7 28 -16 27 -57 108 -36 108 28 0 35 10 37 36 7 20 -24 21 -58 2
-58 -6 0 -8 -3 -5 -7 13 -12 56 45 50 67 -3 11 -9 21 -14 21 -5 1 -13 2 -18 3
-5 0 -13 4 -17 9 -14 14 -99 6 -135 -13z"/>
<path d="M3302 2460 c0 -19 2 -27 5 -17 2 9 2 25 0 35 -3 9 -5 1 -5 -18z"/>
<path d="M4377 2383 c-9 -32 -18 -67 -22 -78 -3 -11 3 -2 13 20 18 38 37 115
29 115 -2 0 -11 -26 -20 -57z"/>
<path d="M3340 2375 l-2 -50 -13 45 c-8 29 -13 37 -14 22 -1 -13 17 -71 40
-128 43 -111 60 -137 29 -44 -10 31 -23 89 -28 130 -9 71 -10 73 -12 25z"/>
<path d="M3770 2336 c0 -9 30 -14 35 -6 4 6 -3 10 -14 10 -12 0 -21 -2 -21 -4z"/>
<path d="M3925 2330 c-7 -12 2 -12 30 0 19 8 19 9 -2 9 -12 1 -25 -3 -28 -9z"/>
<path d="M3400 2145 c0 -5 10 -21 21 -35 13 -17 17 -18 10 -5 -17 33 -31 51
-31 40z"/>
<path d="M3872 2134 c-12 -8 -22 -11 -22 -6 0 5 -8 9 -17 10 -30 2 -173 -31
-173 -40 0 -4 4 -8 8 -8 5 0 22 -11 37 -24 40 -35 103 -50 172 -41 54 6 143
46 143 64 0 4 12 14 28 21 l27 13 -35 9 c-19 5 -54 8 -77 6 -24 -2 -43 0 -43
4 0 13 -24 9 -48 -8z m118 -41 c0 -2 -18 -12 -40 -23 -56 -28 -180 -29 -180 0
0 7 38 11 113 11 9 0 15 4 12 9 -3 5 17 8 45 7 27 -1 50 -3 50 -4z"/>
<path d="M3390 2072 c0 -10 64 -62 76 -62 10 0 -37 50 -58 61 -11 6 -18 6 -18
1z"/>
<path d="M4119 1938 c-26 -29 -46 -54 -44 -56 10 -10 45 12 45 28 0 10 10 27
23 37 26 20 42 43 31 43 -4 0 -29 -23 -55 -52z"/>
<path d="M3590 1869 c45 -36 99 -59 137 -59 l38 1 -50 20 c-27 11 -69 29 -93
40 -54 24 -64 24 -32 -2z"/>
<path d="M4015 1840 c-4 -6 14 -10 47 -9 39 0 48 3 33 9 -28 12 -73 12 -80 0z"/>
<path d="M3819 1799 c34 -6 65 -6 80 0 20 7 7 9 -54 9 l-80 0 54 -9z"/>
<path d="M3418 1678 c11 -14 52 -31 52 -22 0 2 -15 11 -32 20 -28 14 -31 15
-20 2z"/>
<path d="M1230 1628 c-25 -5 -80 -7 -122 -3 -65 4 -77 3 -72 -9 8 -20 125 -50
166 -42 35 6 115 66 88 64 -8 0 -35 -4 -60 -10z"/>
<path d="M1265 1580 c3 -5 16 -15 28 -21 22 -12 22 -12 3 10 -19 21 -43 30
-31 11z"/>
<path d="M3575 1546 c15 -20 32 -36 37 -36 13 0 -34 62 -52 68 -7 3 -1 -12 15
-32z"/>
<path d="M1337 1529 c7 -7 15 -10 18 -7 3 3 -2 9 -12 12 -14 6 -15 5 -6 -5z"/>
<path d="M4275 1530 c-11 -5 -52 -9 -92 -9 -39 -1 -75 -5 -78 -11 -4 -6 5 -10
19 -10 17 0 26 -5 26 -16 0 -28 78 -13 130 25 41 29 39 40 -5 21z"/>
<path d="M3640 1505 c0 -6 29 -18 70 -29 l25 -7 -25 14 c-31 18 -70 30 -70 22z"/>
<path d="M910 1485 c-14 -8 -20 -14 -15 -14 6 0 21 6 35 14 14 8 21 14 15 14
-5 0 -21 -6 -35 -14z"/>
<path d="M1111 1487 c-8 -11 -6 -13 12 -13 17 1 21 -4 19 -19 -5 -30 -19 -40
-37 -25 -22 18 -19 -4 4 -24 11 -10 30 -16 43 -14 18 2 24 10 26 36 2 18 8 30
13 27 16 -11 10 11 -9 28 -22 20 -55 22 -71 4z"/>
<path d="M4296 1491 c-5 -8 -47 -29 -122 -61 -17 -8 -37 -22 -43 -33 -11 -17
-10 -18 11 -12 45 14 189 115 164 115 -3 0 -7 -4 -10 -9z"/>
<path d="M2440 1424 c0 -5 -12 -94 -26 -199 -15 -104 -29 -226 -31 -270 -3
-44 -10 -83 -17 -87 -16 -9 -11 -203 7 -256 17 -48 15 -51 -57 -81 -57 -25
-101 -29 -305 -30 -85 -1 -152 -3 -150 -6 3 -2 71 -5 151 -6 132 0 146 -2 142
-17 -5 -15 -4 -15 9 1 15 19 47 23 47 7 0 -6 -7 -13 -15 -16 -8 -4 -15 -12
-15 -20 0 -8 -4 -14 -10 -14 -5 0 -10 -8 -10 -17 -1 -16 -2 -16 -17 2 -13 16
-15 17 -10 3 4 -11 1 -18 -6 -18 -14 0 -47 -51 -47 -73 0 -8 -6 -17 -14 -20
-8 -3 -12 -15 -9 -30 3 -14 -2 -30 -11 -40 -9 -8 -16 -22 -16 -31 0 -8 -5 -18
-10 -21 -6 -4 -8 -10 -5 -15 3 -4 -4 -6 -15 -3 -11 3 -17 9 -14 14 3 5 10 7
15 4 5 -4 9 3 9 15 0 18 -5 20 -40 16 -30 -4 -39 -2 -33 7 4 7 0 6 -10 -2 -16
-12 -17 -12 -11 5 5 18 5 18 -10 0 -17 -21 -18 -21 -34 9 -10 19 -11 18 -24
-11 -8 -19 -19 -29 -28 -27 -11 3 -10 1 2 -7 10 -6 15 -17 11 -26 -4 -11 -9
-12 -19 -3 -11 9 -14 8 -14 -5 0 -9 5 -16 11 -16 6 0 8 -16 6 -40 -2 -22 0
-40 4 -40 5 0 9 -5 9 -11 0 -5 -4 -8 -9 -4 -19 11 -19 -12 0 -28 17 -15 70
-17 584 -17 556 0 566 0 555 19 -15 28 -13 34 10 28 11 -3 23 -1 26 4 3 5 19
9 35 9 25 0 30 -5 36 -30 8 -41 37 -41 31 0 -4 25 -1 30 21 33 14 3 -32 4
-104 4 l-129 -1 -6 24 c-4 17 0 34 14 53 17 23 18 30 7 37 -8 4 -11 15 -8 24
8 21 -13 56 -33 55 -10 0 -11 -2 -2 -6 17 -7 15 -23 -3 -23 -8 0 -15 5 -15 12
0 6 -3 8 -6 5 -4 -4 -1 -13 5 -21 14 -17 5 -25 -36 -32 -15 -3 -30 1 -36 8 -9
13 -6 0 9 -37 3 -8 2 -15 -2 -15 -10 0 -34 48 -34 67 0 7 -4 13 -10 13 -5 0
-7 -7 -3 -16 5 -14 1 -16 -20 -12 -14 3 -28 1 -29 -4 -2 -5 -8 5 -15 21 -6 17
-8 30 -5 29 26 -3 34 4 30 27 -4 20 -1 26 18 31 12 3 31 15 41 27 10 11 12 17
6 13 -15 -8 -17 5 -4 19 5 6 12 21 16 35 6 23 5 23 -14 -5 l-21 -30 6 34 c5
24 4 32 -4 27 -6 -4 -9 -12 -6 -19 2 -7 -2 -21 -11 -32 -15 -20 -15 -20 -8 0
6 20 6 20 -15 2 -11 -11 -25 -16 -30 -13 -12 7 -9 -87 3 -96 6 -4 2 -8 -9 -8
-11 0 -16 5 -13 14 3 7 -1 23 -8 34 -8 10 -12 22 -8 25 3 3 6 28 7 56 0 27 4
53 9 57 11 12 8 26 -5 18 -6 -4 -8 -3 -5 3 6 10 10 29 22 113 15 99 15 121 6
137 -8 16 -10 14 -16 -10 -4 -16 -18 -51 -31 -78 -13 -27 -24 -58 -24 -68 0
-11 -5 -23 -12 -27 -7 -4 -8 -3 -4 4 4 7 4 12 -1 12 -12 0 -14 73 -2 81 14 8
-1 119 -16 119 -14 0 -45 -68 -45 -98 0 -12 -3 -13 -8 -5 -6 10 -12 10 -28 -2
-14 -11 -15 -14 -2 -9 18 6 19 -9 2 -40 -10 -16 -12 -15 -17 14 -4 18 -4 36
-1 41 8 14 -6 49 -19 46 -15 -3 -15 36 0 91 15 53 7 108 -13 91 -11 -9 -11 -5
-4 20 5 17 5 29 0 26 -11 -7 -20 36 -14 69 3 16 22 54 43 85 50 74 94 151 87
151 -3 0 -22 -26 -42 -57 -36 -57 -54 -76 -63 -67 -6 6 -2 92 10 212 6 57 8
106 5 109 -3 4 -6 2 -6 -3z m134 -932 c2 -4 0 -14 -6 -22 -8 -12 -9 -12 -5 2
3 9 1 19 -6 22 -9 3 -9 5 0 5 6 1 14 -3 17 -7z m146 -151 c0 -5 -11 -8 -25 -8
-13 0 -22 3 -19 8 3 5 14 9 25 9 10 0 19 -4 19 -9z m0 -166 c0 -8 -4 -15 -10
-15 -5 0 -10 7 -10 15 0 8 5 15 10 15 6 0 10 -7 10 -15z"/>
<path d="M3766 1421 c-8 -12 23 -23 45 -16 14 5 17 2 14 -8 -5 -10 1 -13 25
-9 16 2 37 -1 45 -8 9 -7 18 -10 21 -7 3 3 -17 17 -45 31 -51 26 -95 33 -105
17z"/>
<path d="M3768 1373 c6 -2 18 -2 25 0 6 3 1 5 -13 5 -14 0 -19 -2 -12 -5z"/>
<path d="M4073 1373 c-18 -4 -23 -11 -23 -38 0 -40 -13 -45 -128 -45 -53 0
-81 4 -77 10 4 6 -17 10 -57 10 -59 -1 -61 -2 -38 -15 23 -12 20 -13 -45 -12
-66 2 -74 5 -120 42 -35 29 -47 34 -41 20 5 -11 17 -47 29 -80 11 -33 37 -87
59 -121 21 -34 38 -68 38 -76 0 -20 34 -49 101 -86 61 -35 76 -38 112 -21 23
10 87 114 87 140 0 8 13 31 30 51 16 20 39 56 49 80 11 23 28 57 37 73 28 50
33 63 27 69 -4 3 -9 5 -12 5 -3 -1 -16 -4 -28 -6z"/>
<path d="M3886 1345 c-9 -26 -7 -32 5 -12 6 10 9 21 6 23 -2 3 -7 -2 -11 -11z"/>
<path d="M2591 1124 c0 -11 3 -14 6 -6 3 7 2 16 -1 19 -3 4 -6 -2 -5 -13z"/>
<path d="M2552 998 c-37 -126 -57 -232 -41 -223 4 3 9 -3 12 -12 2 -10 4 -2 4
17 -1 44 19 158 39 229 8 29 13 55 11 57 -2 2 -14 -28 -25 -68z"/>
<path d="M2781 938 c0 -56 -5 -128 -11 -158 -6 -30 -13 -77 -15 -104 -3 -26
-8 -53 -11 -57 -11 -19 -15 -151 -4 -144 5 3 10 15 10 25 0 10 7 23 17 28 10
6 17 25 19 48 1 22 5 63 8 92 11 109 5 355 -9 371 -2 1 -4 -44 -4 -101z"/>
<path d="M4532 1010 c0 -14 2 -19 5 -12 2 6 2 18 0 25 -3 6 -5 1 -5 -13z"/>
<path d="M3565 1000 c-13 -5 -14 -9 -5 -9 8 0 24 4 35 9 13 5 14 9 5 9 -8 0
-24 -4 -35 -9z"/>
<path d="M3939 978 c-8 -29 -8 -69 0 -63 6 3 11 12 11 20 0 19 26 26 56 15 14
-6 33 -10 42 -9 9 1 -3 7 -27 15 -24 7 -52 16 -62 19 -11 4 -19 5 -20 3z"/>
<path d="M4541 903 c0 -40 3 -73 8 -73 11 0 20 82 11 95 -5 6 -10 19 -13 30
-2 11 -5 -13 -6 -52z"/>
<path d="M4983 905 c-7 -38 -17 -104 -23 -145 -5 -41 -17 -123 -25 -181 -8
-59 -15 -125 -15 -147 0 -23 -4 -43 -9 -46 -5 -3 -7 -15 -4 -26 4 -15 0 -20
-16 -20 -14 0 -19 -5 -14 -16 5 -13 7 -13 14 -2 6 9 9 7 9 -9 0 -12 -5 -23
-10 -25 -11 -3 -24 -79 -34 -210 l-7 -78 60 0 c62 0 81 11 61 35 -9 11 -9 23
-2 44 6 16 7 32 4 36 -4 3 0 10 7 14 9 6 15 39 18 98 5 78 3 91 -11 96 -9 4
-15 3 -13 -1 3 -4 -1 -13 -9 -19 -21 -20 -27 3 -8 38 13 26 13 31 2 26 -9 -3
-15 1 -15 9 0 8 4 14 9 14 12 0 10 64 -3 77 -8 8 -8 30 -1 80 6 37 14 95 17
128 3 33 13 101 21 151 9 51 14 105 12 120 -3 20 -7 8 -15 -41z"/>
<path d="M3361 949 c-18 -6 -32 -11 -30 -13 8 -7 79 7 79 15 0 11 -4 10 -49
-2z"/>
<path d="M1 873 c0 -21 3 -32 6 -25 2 6 8 10 13 7 9 -6 60 15 60 24 0 3 -10
12 -21 20 -20 12 -21 11 -15 -4 6 -16 5 -16 -19 -1 l-25 16 1 -37z"/>
<path d="M4180 901 c0 -5 9 -7 20 -4 11 3 20 7 20 9 0 2 -9 4 -20 4 -11 0 -20
-4 -20 -9z"/>
<path d="M3760 874 c-23 -14 -23 -14 -2 -9 12 4 22 2 22 -4 0 -6 -11 -13 -25
-17 -45 -11 -24 -74 25 -74 37 0 60 24 60 62 0 17 -3 28 -7 25 -3 -4 -12 2
-20 13 -17 24 -20 24 -53 4z"/>
<path d="M67 854 c-11 -11 -8 -26 3 -19 6 4 10 -8 10 -29 0 -19 -5 -38 -12
-42 -7 -4 -8 -3 -4 4 4 7 1 12 -9 12 -8 0 -20 12 -25 26 -6 14 -15 22 -21 19
-7 -5 -5 -15 5 -31 20 -29 20 -34 1 -34 -13 0 -15 -49 -15 -380 l0 -380 314 0
c242 0 315 3 319 13 4 9 6 9 6 0 1 -19 48 -16 55 4 4 9 8 60 9 112 1 52 0 87
-1 77 -3 -14 -7 -15 -18 -5 -21 17 -30 3 -10 -16 11 -11 15 -28 12 -52 -6 -47
-11 -50 -29 -13 -9 16 -11 28 -6 25 5 -3 6 1 3 10 -4 8 -17 18 -30 21 -24 6
-34 24 -13 24 6 0 1 11 -12 24 -17 17 -26 21 -31 13 -5 -8 -8 -6 -8 6 0 10 -7
20 -16 24 -9 3 -14 15 -12 31 2 15 -3 27 -11 30 -8 3 -11 0 -7 -7 5 -7 -1 -11
-14 -11 -14 0 -24 -8 -27 -20 -4 -14 -11 -19 -23 -15 -19 6 -45 -19 -35 -35 3
-5 2 -10 -4 -10 -5 0 -13 5 -16 10 -4 7 -13 4 -23 -8 -15 -16 -19 -17 -30 -6
-7 8 -10 14 -6 14 3 0 1 7 -6 15 -10 12 -15 13 -21 4 -8 -13 -37 26 -44 59 -2
11 -9 30 -15 42 -7 12 -10 33 -7 46 2 13 1 24 -4 24 -4 0 -6 12 -4 28 2 15 4
30 4 34 1 4 8 14 17 23 13 12 38 16 113 16 53 1 137 4 186 9 62 5 23 6 -128 4
-192 -4 -218 -2 -224 12 -4 12 -7 13 -14 3 -6 -11 -9 -10 -15 4 -7 20 -34 23
-34 5 0 -8 -3 -9 -8 -3 -11 16 -52 17 -46 1 4 -9 -5 -13 -33 -12 l-38 1 -3 97
c-3 97 -3 98 20 94 21 -3 23 -8 20 -53 -4 -63 16 -89 76 -96 43 -5 51 0 31 20
-6 6 -12 24 -14 40 -1 15 -6 36 -10 46 -4 9 -4 24 -1 33 3 8 2 13 -3 10 -5 -3
-14 13 -19 37 -12 47 -34 82 -45 71z m480 -616 c-3 -8 -6 -5 -6 6 -1 11 2 17
5 13 3 -3 4 -12 1 -19z"/>
<path d="M3412 780 c0 -14 2 -19 5 -12 2 6 2 18 0 25 -3 6 -5 1 -5 -13z"/>
<path d="M2660 750 c0 -5 5 -10 11 -10 5 0 7 5 4 10 -3 6 -8 10 -11 10 -2 0
-4 -4 -4 -10z"/>
<path d="M700 660 c-5 -89 -6 -95 -27 -98 -13 -2 -23 -7 -23 -11 0 -15 50 1
58 18 4 9 5 54 2 101 l-6 85 -4 -95z"/>
<path d="M537 712 c-20 -22 -22 -63 -5 -80 16 -16 63 -15 77 2 10 11 8 15 -5
18 -16 3 -16 4 1 22 14 14 16 22 8 35 -15 23 -56 25 -76 3z"/>
<path d="M3422 690 c0 -19 2 -27 5 -17 2 9 2 25 0 35 -3 9 -5 1 -5 -18z"/>
<path d="M3652 690 c0 -14 2 -19 5 -12 2 6 2 18 0 25 -3 6 -5 1 -5 -13z"/>
<path d="M1660 670 c-11 -11 -20 -27 -20 -35 0 -20 44 -65 64 -65 45 0 63 77
24 104 -30 21 -44 20 -68 -4z m51 -83 c-5 -5 -18 -4 -30 2 -32 17 -25 31 9 18
17 -6 26 -15 21 -20z"/>
<path d="M1598 631 c-12 -50 -10 -105 4 -119 16 -16 33 -15 20 1 -6 7 -12 44
-14 82 -3 59 -4 65 -10 36z"/>
<path d="M2210 645 c-19 -22 -15 -77 7 -92 25 -19 45 -12 63 20 13 24 13 30 0
55 -18 31 -51 40 -70 17z m54 -24 c6 -10 -16 -61 -26 -61 -11 0 -21 47 -13 59
8 13 32 14 39 2z"/>
<path d="M1114 615 c-13 -21 -15 -31 -6 -50 22 -48 95 -41 108 11 14 57 -69
89 -102 39z m76 7 c0 -4 -16 -8 -35 -9 -19 -1 -32 3 -29 8 7 11 64 12 64 1z"/>
<path d="M3432 615 c0 -16 2 -22 5 -12 2 9 2 23 0 30 -3 6 -5 -1 -5 -18z"/>
<path d="M4099 583 c-15 -41 -63 -247 -94 -403 -14 -74 -28 -145 -31 -158 -4
-20 -1 -23 18 -20 20 3 23 8 20 38 -5 56 34 292 71 438 33 126 39 164 16 105z"/>
<path d="M1668 493 c12 -2 32 -2 45 0 12 2 2 4 -23 4 -25 0 -35 -2 -22 -4z"/>
<path d="M1783 493 c15 -2 37 -2 50 0 12 2 0 4 -28 4 -27 0 -38 -2 -22 -4z"/>
<path d="M2680 399 c0 -5 5 -7 10 -4 6 3 10 8 10 11 0 2 -4 4 -10 4 -5 0 -10
-5 -10 -11z"/>
<path d="M3463 224 l2 -149 -55 -6 c-44 -5 -48 -6 -20 -9 19 -1 39 -2 44 -1 4
1 17 -1 27 -4 17 -6 17 -8 4 -21 -22 -22 -18 -34 10 -34 24 0 25 3 25 53 0 56
-28 308 -35 315 -2 2 -3 -63 -2 -144z"/>
<path d="M4650 360 c8 -5 20 -10 25 -10 6 0 3 5 -5 10 -8 5 -19 10 -25 10 -5
0 -3 -5 5 -10z"/>
<path d="M4715 360 c-18 -8 -17 -9 8 -9 16 -1 26 3 22 9 -3 6 -7 10 -8 9 -1 0
-11 -4 -22 -9z"/>
<path d="M491 334 c0 -11 3 -14 6 -6 3 7 2 16 -1 19 -3 4 -6 -2 -5 -13z"/>
<path d="M660 340 c0 -5 5 -10 11 -10 5 0 7 5 4 10 -3 6 -8 10 -11 10 -2 0 -4
-4 -4 -10z"/>
<path d="M4648 248 c-51 -49 -81 -119 -80 -185 0 -24 -4 -43 -9 -43 -5 0 -9
-4 -9 -10 0 -6 40 -10 101 -10 65 0 98 4 94 10 -4 6 -11 8 -16 5 -18 -12 -9
17 16 49 27 36 34 93 13 114 -33 33 -82 -11 -76 -69 2 -20 -2 -34 -10 -37 -9
-3 -11 7 -7 40 12 86 27 153 37 166 25 30 -13 9 -54 -30z m58 -106 c-17 -16
-18 -16 -5 5 7 12 15 20 18 17 3 -2 -3 -12 -13 -22z"/>
<path d="M697 267 c-3 -8 -1 -20 4 -28 6 -10 9 -7 9 14 0 29 -5 35 -13 14z"/>
<path d="M3283 240 c-41 -17 -43 -102 -2 -115 31 -10 67 2 80 28 11 21 11 21
-7 6 -33 -28 -59 -31 -79 -9 -15 17 -16 24 -6 46 10 22 15 25 44 19 17 -4 38
-14 45 -23 10 -13 12 -14 12 -1 0 26 -26 53 -44 46 -10 -4 -15 -3 -11 3 7 12
-2 12 -32 0z"/>
<path d="M1821 224 c0 -11 3 -14 6 -6 3 7 2 16 -1 19 -3 4 -6 -2 -5 -13z"/>
<path d="M4180 218 c0 -28 -20 -182 -25 -199 -5 -14 -1 -19 12 -19 16 0 18 11
19 115 1 63 0 115 -2 115 -2 0 -4 -6 -4 -12z"/>
<path d="M4317 162 c-22 -24 -24 -50 -2 -32 19 15 52 4 58 -20 3 -10 2 -21 -1
-24 -10 -10 -48 -6 -60 6 -9 9 -12 9 -12 1 0 -16 40 -43 62 -43 23 0 58 39 58
65 0 27 -39 65 -67 65 -11 0 -27 -8 -36 -18z"/>
<path d="M1795 119 c-4 -6 -5 -12 -2 -15 2 -3 7 2 10 11 7 17 1 20 -8 4z"/>
<path d="M1543 65 c0 -27 2 -38 4 -22 2 15 2 37 0 50 -2 12 -4 0 -4 -28z"/>
<path d="M1040 67 c0 -23 4 -36 10 -32 13 8 13 35 0 55 -7 11 -10 5 -10 -23z"/>
<path d="M3238 63 c18 -2 45 -2 60 0 15 2 0 4 -33 4 -33 0 -45 -2 -27 -4z"/>
<path d="M1284 36 c3 -12 6 -24 6 -28 0 -5 16 -8 36 -8 31 0 35 3 32 22 -2 18
-12 24 -41 29 -36 6 -38 4 -33 -15z"/>
<path d="M905 10 c3 -5 8 -10 11 -10 2 0 4 5 4 10 0 6 -5 10 -11 10 -5 0 -7
-4 -4 -10z"/>
<path d="M935 10 c-3 -5 1 -10 10 -10 9 0 13 5 10 10 -3 6 -8 10 -10 10 -2 0
-7 -4 -10 -10z"/>
</g>
</svg>
